<?xml version="1.0" encoding="utf-8"?>
<!-- Generator: Adobe Illustrator 16.0.3, SVG Export Plug-In . SVG Version: 6.00 Build 0)  -->
<!DOCTYPE svg PUBLIC "-//W3C//DTD SVG 1.1//EN" "http://www.w3.org/Graphics/SVG/1.1/DTD/svg11.dtd">
<svg version="1.1" id="Layer_1" xmlns="http://www.w3.org/2000/svg" xmlns:xlink="http://www.w3.org/1999/xlink" x="0px" y="0px"
	 width="48px" height="144px" viewBox="0 0 48 144" enable-background="new 0 0 48 144" xml:space="preserve">
<g id="New_Symbol">
	<g>
		<path opacity="0.9" fill="#FFFFFF" enable-background="new    " d="M36.036,2H11.761C6.314,2,2,6.667,2,12.115V36.39
			C2,41.836,6.314,46,11.761,46h24.275C41.482,46,46,41.836,46,36.39V12.115C46,6.667,41.482,2,36.036,2z"/>
		<g opacity="0.1">
			<path d="M36.018,2C41.465,2,46,6.667,46,12.115V36.39c0,5.446-4.518,9.61-9.964,9.61H11.761C6.314,46,2,41.836,2,36.39V12.115
				C2,6.667,6.314,2,11.761,2H36 M36.036,0H11.761C5.276,0,0,5.435,0,12.115V36.39C0,42.9,5.166,48,11.761,48h24.275
				C42.633,48,48,42.792,48,36.39V12.115C48,5.548,42.521,0,36.036,0L36.036,0z"/>
		</g>
	</g>
	<rect fill="none" width="48" height="48"/>
	<g>
		<path opacity="0.9" fill="#FFFFFF" enable-background="new    " d="M36.036,50H11.761C6.314,50,2,54.667,2,60.115v24.276
			C2,89.836,6.314,94,11.761,94h24.275C41.482,94,46,89.836,46,84.391V60.115C46,54.667,41.482,50,36.036,50z"/>
		<path opacity="0.15" fill="#5AA0FF" enable-background="new    " d="M36.036,50H11.761C6.314,50,2,54.667,2,60.115v24.276
			C2,89.836,6.314,94,11.761,94h24.275C41.482,94,46,89.836,46,84.391V60.115C46,54.667,41.482,50,36.036,50z"/>
		<g opacity="0.1">
			<path d="M36.018,50C41.465,50,46,54.667,46,60.115v24.276C46,89.836,41.482,94,36.036,94H11.761C6.314,94,2,89.836,2,84.391
				V60.115C2,54.667,6.314,50,11.761,50H36 M36.036,48H11.761C5.276,48,0,53.435,0,60.115v24.276C0,90.9,5.166,96,11.761,96h24.275
				C42.633,96,48,90.792,48,84.391V60.115C48,53.548,42.521,48,36.036,48L36.036,48z"/>
		</g>
	</g>
	<rect y="48" fill="none" width="48" height="48"/>
	<g>
		<path opacity="0.9" fill="#FFFFFF" enable-background="new    " d="M36.036,98H11.761C6.314,98,2,102.667,2,108.115v24.275
			C2,137.836,6.314,142,11.761,142h24.275c5.446,0,9.964-4.164,9.964-9.609v-24.275C46,102.667,41.482,98,36.036,98z"/>
		<path fill="#5AA0FF" d="M36.036,98H11.761C6.314,98,2,102.667,2,108.115v24.275C2,137.836,6.314,142,11.761,142h24.275
			c5.446,0,9.964-4.164,9.964-9.609v-24.275C46,102.667,41.482,98,36.036,98z"/>
		<g opacity="0.1">
			<path d="M36.018,98C41.465,98,46,102.667,46,108.115v24.275c0,5.445-4.518,9.609-9.964,9.609H11.761
				C6.314,142,2,137.836,2,132.391v-24.275C2,102.667,6.314,98,11.761,98H36 M36.036,96H11.761C5.276,96,0,101.436,0,108.115v24.275
				C0,138.9,5.166,144,11.761,144h24.275C42.633,144,48,138.792,48,132.391v-24.275C48,101.548,42.521,96,36.036,96L36.036,96z"/>
		</g>
	</g>
	<rect y="96" fill="none" width="48" height="48"/>
</g>
<g>
	<g>
		<path fill="#5AA0FF" d="M24,13.02c0.5,0,1,0.33,1,0.99c0,0,0,7,0,8c0,0.71,0.25,1.07,0.5,1.07s0.5-0.36,0.5-1.07c0-1,0-7,0-7
			c0-0.66,0-1,1-1s1,0.34,1,1v7c0,0.71,0.25,1.07,0.5,1.07s0.5-0.36,0.5-1.07v-4c0-0.66,0-1,1-1s1,0.34,1,1V27c0,5-1,8-6,8
			s-10-8.01-10-11c0-0.224,0.2-0.447,0.51-0.447c0.384,0,0.937,0.342,1.489,1.447c0.224,0.447,1,2,2,2s1-1,1-2v-9.99
			c0-0.66,0.5-1.01,1-1.01s1,0.35,1,1.01c0,0,0,6,0,7c0,0.71,0.25,1.07,0.5,1.07s0.5-0.36,0.5-1.07c0-1,0-8,0-8
			C23,13.35,23.5,13.02,24,13.02 M24,11.02c-0.937,0-1.761,0.407-2.307,1.058C21.472,12.027,21.239,12,21,12
			c-1.682,0-3,1.322-3,3.01v7.854c-1-1.056-1.794-1.313-2.489-1.313C14.126,21.553,13,22.65,13,24c0,4.061,5.801,13,12,13
			c8,0,8-7.008,8-10v-8.99c0-2.61-1.879-3-3-3c0-2.61-1.879-3-3-3c-0.213,0-0.454,0.014-0.704,0.055
			C25.75,11.422,24.932,11.02,24,11.02L24,11.02z"/>
	</g>
</g>
<g>
	<g>
		<path fill="#5AA0FF" d="M24,61.02c0.5,0,1,0.33,1,0.99c0,0,0,7,0,8c0,0.71,0.25,1.07,0.5,1.07s0.5-0.36,0.5-1.07c0-1,0-7,0-7
			c0-0.66,0-1,1-1s1,0.34,1,1v7c0,0.71,0.25,1.07,0.5,1.07s0.5-0.36,0.5-1.07v-4c0-0.66,0-1,1-1s1,0.34,1,1V75c0,5-1,8-6,8
			s-10-8.01-10-11c0-0.224,0.2-0.447,0.51-0.447c0.384,0,0.937,0.342,1.489,1.447c0.224,0.447,1,2,2,2s1-1,1-2v-9.99
			c0-0.66,0.5-1.01,1-1.01s1,0.35,1,1.01c0,0,0,6,0,7c0,0.71,0.25,1.07,0.5,1.07s0.5-0.36,0.5-1.07c0-1,0-8,0-8
			C23,61.35,23.5,61.02,24,61.02 M24,59.02c-0.937,0-1.761,0.407-2.307,1.058C21.472,60.027,21.239,60,21,60
			c-1.682,0-3,1.322-3,3.01v7.854c-1-1.056-1.794-1.313-2.489-1.313C14.126,69.553,13,70.65,13,72c0,4.061,5.801,13,12,13
			c8,0,8-7.008,8-10v-8.99c0-2.61-1.879-3-3-3c0-2.61-1.879-3-3-3c-0.213,0-0.454,0.014-0.704,0.055
			C25.75,59.422,24.932,59.02,24,59.02L24,59.02z"/>
	</g>
</g>
<g>
	<g>
		<path fill="#FFFFFF" d="M24,109.02c0.5,0,1,0.33,1,0.99c0,0,0,7,0,8c0,0.711,0.25,1.07,0.5,1.07s0.5-0.359,0.5-1.07c0-1,0-7,0-7
			c0-0.66,0-1,1-1s1,0.34,1,1v7c0,0.711,0.25,1.07,0.5,1.07s0.5-0.359,0.5-1.07v-4c0-0.66,0-1,1-1s1,0.34,1,1V123c0,5-1,8-6,8
			s-10-8.01-10-11c0-0.225,0.2-0.447,0.51-0.447c0.384,0,0.937,0.342,1.489,1.447c0.224,0.447,1,2,2,2s1-1,1-2v-9.99
			c0-0.66,0.5-1.01,1-1.01s1,0.35,1,1.01c0,0,0,6,0,7c0,0.711,0.25,1.07,0.5,1.07s0.5-0.359,0.5-1.07c0-1,0-8,0-8
			C23,109.35,23.5,109.02,24,109.02 M24,107.02c-0.937,0-1.761,0.408-2.307,1.059C21.472,108.027,21.239,108,21,108
			c-1.682,0-3,1.322-3,3.01v7.855c-1-1.057-1.794-1.313-2.489-1.313c-1.385,0-2.51,1.098-2.51,2.446c0,4.062,5.801,13,12,13
			c8,0,8-7.009,8-10v-8.99c0-2.61-1.879-3-3-3c0-2.61-1.879-3-3-3c-0.213,0-0.454,0.015-0.704,0.056
			C25.75,107.422,24.932,107.02,24,107.02L24,107.02z"/>
	</g>
</g>
</svg>
