<?xml version="1.0" encoding="utf-8"?>
<!-- Generator: Adobe Illustrator 16.0.3, SVG Export Plug-In . SVG Version: 6.00 Build 0)  -->
<!DOCTYPE svg PUBLIC "-//W3C//DTD SVG 1.1//EN" "http://www.w3.org/Graphics/SVG/1.1/DTD/svg11.dtd">
<svg version="1.1" id="Layer_1" xmlns="http://www.w3.org/2000/svg" xmlns:xlink="http://www.w3.org/1999/xlink" x="0px" y="0px"
	 width="120px" height="360px" viewBox="0 0 40 120" enable-background="new 0 0 40 120" xml:space="preserve">
<g id="New_Symbol">
	<rect fill="none" width="40" height="40"/>
	<g opacity="0.7">
		<g>
			<g>
				
					<polyline fill="none" stroke="#5AA0FF" stroke-width="2" stroke-linecap="round" stroke-linejoin="round" stroke-miterlimit="10" points="
					12,13 12,19 18.5,19 				"/>
			</g>
			<g>
				<path fill="none" stroke="#5AA0FF" stroke-width="2.1538" stroke-linecap="round" stroke-linejoin="round" d="M14.325,23.294
					C15.503,25.499,17.825,27,20.5,27c3.866,0,7-3.134,7-7s-3.134-7-7-7c-3.245,0-5.966,2.21-6.759,5.206"/>
			</g>
		</g>
	</g>
	<rect y="40" fill="none" width="40" height="40"/>
	<g opacity="0.85">
		<g>
			<g>
				
					<polyline fill="none" stroke="#5AA0FF" stroke-width="2" stroke-linecap="round" stroke-linejoin="round" stroke-miterlimit="10" points="
					12,53 12,59 18.5,59 				"/>
			</g>
			<g>
				<path fill="none" stroke="#5AA0FF" stroke-width="2.1538" stroke-linecap="round" stroke-linejoin="round" d="M14.325,63.294
					C15.503,65.499,17.825,67,20.5,67c3.866,0,7-3.134,7-7s-3.134-7-7-7c-3.245,0-5.966,2.21-6.759,5.206"/>
			</g>
		</g>
	</g>
	<rect fill="none" width="40" height="40"/>
	<g>
		<g>
			<g>
				
					<polyline fill="none" stroke="#5AA0FF" stroke-width="2" stroke-linecap="round" stroke-linejoin="round" stroke-miterlimit="10" points="
					12,93 12,99 18.5,99 				"/>
			</g>
			<g>
				<path fill="none" stroke="#5AA0FF" stroke-width="2.1538" stroke-linecap="round" stroke-linejoin="round" d="M14.325,103.294
					c1.178,2.205,3.5,3.706,6.175,3.706c3.866,0,7-3.134,7-7s-3.134-7-7-7c-3.245,0-5.966,2.21-6.759,5.206"/>
			</g>
		</g>
	</g>
</g>
</svg>
